<?xml version="1.0" encoding="UTF-8" standalone="no"?>
<!-- Created with Inkscape (http://www.inkscape.org/) -->

<svg
   width="1278.3446"
   height="169.09985"
   viewBox="0 0 1278.3446 169.09985"
   version="1.1"
   id="svg1"
   xml:space="preserve"
   xmlns="http://www.w3.org/2000/svg"
   xmlns:svg="http://www.w3.org/2000/svg"><defs
     id="defs1" /><g
     id="layer1"
     transform="translate(-211.50624,-2450.0489)"><g
       id="g80"><g
         id="g79"
         transform="translate(442.73926,-371.97923)"><path
           style="font-size:192.596px;font-family:Designer;-inkscape-font-specification:'Designer, Normal';letter-spacing:45px;fill:#0c232f;fill-opacity:1;stroke:#e1e5e8;stroke-width:6.33511;stroke-linecap:butt;stroke-linejoin:miter;stroke-dasharray:none;stroke-opacity:1;paint-order:markers stroke fill"
           d="m 931.98364,2833.2296 v 146.7187 h 20.74379 v -64.6656 l 59.17497,64.6656 h 28.0625 l -68.02186,-75.0375 64.36256,-71.6812 h -27.7595 l -55.81867,64.6656 v -64.6656 z"
           id="path73" /><path
           style="font-size:192.596px;font-family:Designer;-inkscape-font-specification:'Designer, Normal';letter-spacing:45px;fill:#0c232f;fill-opacity:1;stroke:#e1e5e8;stroke-width:6.33511;stroke-linecap:butt;stroke-linejoin:miter;stroke-dasharray:none;stroke-opacity:1;paint-order:markers stroke fill"
           d="m 444.05601,2833.2296 v 21.0468 h 52.46251 c 15.25141,0 27.4531,7.9332 27.4531,27.15 0,19.2168 -12.81106,26.8407 -28.06249,26.8407 h -51.85312 v 71.6812 h 20.74063 v -50.6344 h 22.87812 l 36.29686,50.6344 h 24.40312 L 510.856,2927.1795 c 21.65701,-5.7955 34.16251,-24.4028 34.16251,-46.9749 0,-27.7576 -17.69025,-46.975 -55.81875,-46.975 z"
           id="path74" /><path
           style="font-size:192.596px;font-family:Designer;-inkscape-font-specification:'Designer, Normal';letter-spacing:45px;fill:#0c232f;fill-opacity:1;stroke:#e1e5e8;stroke-width:6.33511;stroke-linecap:butt;stroke-linejoin:miter;stroke-dasharray:none;stroke-opacity:1;paint-order:markers stroke fill"
           d="m 658.75784,2829.8764 -69.54683,149.7687 h 22.57194 l 14.03113,-31.1125 3.02215,-6.6351 44.17869,0.3217 -9.35424,-20.1838 -25.6867,-0.1856 20.78386,-45.6109 20.92319,45.914 h -0.0158 l 12.03304,26.3797 14.0316,31.4157 h 22.87508 z"
           id="path75" /><g
           id="g77"
           transform="matrix(1.5837738,0,0,1.5837738,-949.51644,1909.2244)"
           style="fill:#0c232f;fill-opacity:1;stroke:#e1e5e8;stroke-width:4.00001;stroke-linecap:butt;stroke-linejoin:miter;stroke-dasharray:none;stroke-opacity:1;paint-order:markers stroke fill"><g
             id="g76"
             style="fill:#0c232f;fill-opacity:1;stroke:#e1e5e8;stroke-width:4.00001;stroke-linecap:butt;stroke-linejoin:miter;stroke-dasharray:none;stroke-opacity:1;paint-order:markers stroke fill"><path
               style="font-size:192.596px;font-family:Designer;-inkscape-font-specification:'Designer, Normal';letter-spacing:45px;fill:#0c232f;fill-opacity:1;stroke:#e1e5e8;stroke-width:4.00001;stroke-linecap:butt;stroke-linejoin:miter;stroke-dasharray:none;stroke-opacity:1;paint-order:markers stroke fill"
               d="m 1085.3555,581.30273 v 18.29492 l 76.8457,78.58008 v -94.75781 h -13.0957 v 63.36523 z"
               id="path76" /></g><path
             style="font-size:192.596px;font-family:Designer;-inkscape-font-specification:'Designer, Normal';letter-spacing:45px;fill:#0c232f;fill-opacity:1;stroke:#e1e5e8;stroke-width:4.00001;stroke-linecap:butt;stroke-linejoin:miter;stroke-dasharray:none;stroke-opacity:1;paint-order:markers stroke fill"
             d="m 1085.3555,610.76953 v 65.09765 h 13.0976 v -52.00195 z"
             id="path77" /></g></g><g
         id="g78"
         transform="translate(-229.45579,-166.8772)"><g
           id="g67"
           transform="matrix(1.5837738,0,0,1.5837738,-982.05452,1909.2244)"
           style="fill:#0c232f;fill-opacity:1;stroke:#e1e5e8;stroke-width:4.00001;stroke-linecap:butt;stroke-linejoin:miter;stroke-dasharray:none;stroke-opacity:1;paint-order:markers stroke fill"><path
             style="font-size:192.596px;font-family:Designer;-inkscape-font-specification:'Designer, Normal';letter-spacing:20px;fill:#0c232f;fill-opacity:1;stroke:#e1e5e8;stroke-width:4.00001;stroke-linecap:butt;stroke-linejoin:miter;stroke-dasharray:none;stroke-opacity:1;paint-order:markers stroke fill"
             d="m 1188.6225,453.88522 -23.6893,54.50467 6.9334,15.79287 31.008,-70.29754 z"
             id="path66" /><path
             style="font-size:192.596px;font-family:Designer;-inkscape-font-specification:'Designer, Normal';letter-spacing:20px;fill:#0c232f;fill-opacity:1;stroke:#e1e5e8;stroke-width:4.00001;stroke-linecap:butt;stroke-linejoin:miter;stroke-dasharray:none;stroke-opacity:1;paint-order:markers stroke fill"
             d="M 1161.0813,517.4419 1133.54,453.88522 h -14.2521 l 41.7934,94.75723 6.7408,-15.40768 z"
             id="path67" /></g><g
           id="g69"
           transform="matrix(1.5837738,0,0,1.5837738,-938.41075,1909.2244)"
           style="fill:#0c232f;fill-opacity:1;stroke:#e1e5e8;stroke-width:4.00001;stroke-linecap:butt;stroke-linejoin:miter;stroke-dasharray:none;stroke-opacity:1;paint-order:markers stroke fill"><path
             style="font-size:192.596px;font-family:Designer;-inkscape-font-specification:'Designer, Normal';letter-spacing:20px;fill:#0c232f;fill-opacity:1;stroke:#e1e5e8;stroke-width:4.00001;stroke-linecap:butt;stroke-linejoin:miter;stroke-dasharray:none;stroke-opacity:1;paint-order:markers stroke fill"
             d="m 1046.5163,453.11484 v 13.09653 c 17.1411,1.92596 30.2376,16.37066 30.2376,33.89689 0,17.71883 -13.0965,32.16353 -30.2376,34.08949 v 13.09653 c 24.2671,-1.92596 43.5267,-22.14854 43.5267,-47.18602 0,-24.84488 -19.2596,-45.06746 -43.5267,-46.99342 z"
             id="path68" /><path
             style="font-size:192.596px;font-family:Designer;-inkscape-font-specification:'Designer, Normal';letter-spacing:20px;fill:#0c232f;fill-opacity:1;stroke:#e1e5e8;stroke-width:4.00001;stroke-linecap:butt;stroke-linejoin:miter;stroke-dasharray:none;stroke-opacity:1;paint-order:markers stroke fill"
             d="m 995.47837,500.10826 c 0,25.03748 19.06703,45.26006 43.52673,47.18602 v -13.09653 c -17.3337,-1.92596 -30.4302,-16.37066 -30.4302,-34.08949 0,-17.52623 13.0965,-31.97093 30.4302,-33.89689 v -13.09653 c -24.4597,1.92596 -43.71932,22.14854 -43.52673,46.99342 z"
             id="path69" /></g><g
           id="g71"
           transform="matrix(1.5837738,0,0,1.5837738,-897.1652,1909.2244)"
           style="fill:#0c232f;fill-opacity:1;stroke:#e1e5e8;stroke-width:4.00001;stroke-linecap:butt;stroke-linejoin:miter;stroke-dasharray:none;stroke-opacity:1;paint-order:markers stroke fill"><path
             style="font-size:192.596px;font-family:Designer;-inkscape-font-specification:'Designer, Normal';letter-spacing:20px;fill:#0c232f;fill-opacity:1;stroke:#e1e5e8;stroke-width:4.00001;stroke-linecap:butt;stroke-linejoin:miter;stroke-dasharray:none;stroke-opacity:1;paint-order:markers stroke fill"
             d="m 876.29152,546.3313 h 13.09653 v -52.00092 l -13.09653,-13.09653 z"
             id="path70" /><path
             style="font-size:192.596px;font-family:Designer;-inkscape-font-specification:'Designer, Normal';letter-spacing:20px;fill:#0c232f;fill-opacity:1;stroke:#e1e5e8;stroke-width:4.00001;stroke-linecap:butt;stroke-linejoin:miter;stroke-dasharray:none;stroke-opacity:1;paint-order:markers stroke fill"
             d="m 940.0408,453.88522 v 63.36408 l -63.74928,-65.48263 v 18.29662 l 76.8458,78.57916 v -94.75723 z"
             id="path71" /></g><path
           style="font-size:192.596px;font-family:Designer;-inkscape-font-specification:'Designer, Normal';letter-spacing:20px;fill:#0c232f;fill-opacity:1;stroke:#e1e5e8;stroke-width:6.33511;stroke-linecap:butt;stroke-linejoin:miter;stroke-dasharray:none;stroke-opacity:1;paint-order:markers stroke fill"
           d="m 444.12958,2774.4896 h 20.74194 v -146.4137 h -20.74194 z"
           id="path72" /><path
           style="font-size:192.596px;font-family:Designer;-inkscape-font-specification:'Designer, Normal';letter-spacing:45px;display:inline;fill:#0c232f;fill-opacity:1;stroke:#e1e5e8;stroke-width:6.33511;stroke-linecap:butt;stroke-linejoin:miter;stroke-dasharray:none;stroke-opacity:1;paint-order:markers stroke fill"
           d="m 969.53982,2624.7217 -69.54683,149.7687 h 22.57194 l 14.03113,-31.1125 3.02216,-6.6351 44.17874,0.3217 -9.35425,-20.1839 -25.68675,-0.1856 20.78386,-45.6108 20.92324,45.914 h -0.0158 l 12.03304,26.3797 14.0312,31.4156 h 22.875 z"
           id="path78" /></g></g></g></svg>
