<?xml version="1.0" encoding="UTF-8" standalone="no"?>
<!-- Created with Inkscape (http://www.inkscape.org/) -->

<svg
   width="1278.3446"
   height="169.09985"
   viewBox="0 0 1278.3446 169.09985"
   version="1.1"
   id="svg1"
   xml:space="preserve"
   xmlns="http://www.w3.org/2000/svg"
   xmlns:svg="http://www.w3.org/2000/svg"><defs
     id="defs1" /><g
     id="layer1"
     transform="translate(-211.50624,-2094.8958)"><g
       id="g29"><g
         id="g23"
         transform="translate(672.19509,-205.10203)"><path
           style="font-size:192.596px;font-family:Designer;-inkscape-font-specification:'Designer, Normal';letter-spacing:45px;fill:#e1e5e8;fill-opacity:1;stroke:#e1e5e8;stroke-width:6.33511;stroke-linecap:butt;stroke-linejoin:miter;stroke-dasharray:none;stroke-opacity:1;paint-order:markers stroke fill"
           d="m 702.52785,2311.1993 v 146.7187 h 20.74379 v -64.6656 l 59.17502,64.6656 h 28.06241 l -68.02182,-75.0375 64.36251,-71.6812 h -27.75944 l -55.81868,64.6656 v -64.6656 z"
           id="path16" /><path
           style="font-size:192.596px;font-family:Designer;-inkscape-font-specification:'Designer, Normal';letter-spacing:45px;fill:#e1e5e8;fill-opacity:1;stroke:#e1e5e8;stroke-width:6.33511;stroke-linecap:butt;stroke-linejoin:miter;stroke-dasharray:none;stroke-opacity:1;paint-order:markers stroke fill"
           d="m 214.60022,2311.1993 v 21.0468 h 52.46251 c 15.25141,0 27.4531,7.9332 27.4531,27.15 0,19.2168 -12.81106,26.8407 -28.06249,26.8407 h -51.85312 v 71.6812 h 20.74063 v -50.6344 h 22.87812 l 36.29686,50.6344 h 24.40312 l -37.51874,-52.7688 c 21.65701,-5.7955 34.16251,-24.4028 34.16251,-46.9749 0,-27.7576 -17.69025,-46.975 -55.81875,-46.975 z"
           id="path17" /><path
           style="font-size:192.596px;font-family:Designer;-inkscape-font-specification:'Designer, Normal';letter-spacing:45px;fill:#e1e5e8;fill-opacity:1;stroke:#e1e5e8;stroke-width:6.33511;stroke-linecap:butt;stroke-linejoin:miter;stroke-dasharray:none;stroke-opacity:1;paint-order:markers stroke fill"
           d="m 429.30205,2307.8461 -69.54683,149.7687 h 22.57194 l 14.03113,-31.1125 3.02215,-6.6351 44.17869,0.3217 -9.35424,-20.1838 -25.6867,-0.1856 20.78386,-45.6109 20.92319,45.914 h -0.0158 l 12.03304,26.3797 14.0316,31.4157 h 22.87508 z"
           id="path18" /><g
           id="g20"
           transform="matrix(1.5837738,0,0,1.5837738,-1178.9722,1387.1941)"
           style="fill:#e1e5e8;fill-opacity:1;stroke:#e1e5e8;stroke-width:4.00001;stroke-linecap:butt;stroke-linejoin:miter;stroke-dasharray:none;stroke-opacity:1;paint-order:markers stroke fill"><g
             id="g19"
             style="stroke:#e1e5e8;stroke-width:4.00001;stroke-linecap:butt;stroke-linejoin:miter;stroke-dasharray:none;stroke-opacity:1;paint-order:markers stroke fill"><path
               style="font-size:192.596px;font-family:Designer;-inkscape-font-specification:'Designer, Normal';letter-spacing:45px;fill:#e1e5e8;fill-opacity:1;stroke:#e1e5e8;stroke-width:4.00001;stroke-linecap:butt;stroke-linejoin:miter;stroke-dasharray:none;stroke-opacity:1;paint-order:markers stroke fill"
               d="m 1085.3555,581.30273 v 18.29492 l 76.8457,78.58008 v -94.75781 h -13.0957 v 63.36523 z"
               id="path19" /></g><path
             style="font-size:192.596px;font-family:Designer;-inkscape-font-specification:'Designer, Normal';letter-spacing:45px;fill:#e1e5e8;fill-opacity:1;stroke:#e1e5e8;stroke-width:4.00001;stroke-linecap:butt;stroke-linejoin:miter;stroke-dasharray:none;stroke-opacity:1;paint-order:markers stroke fill"
             d="m 1085.3555,610.76953 v 65.09765 h 13.0976 v -52.00195 z"
             id="path20" /></g></g><g
         id="g24"><g
           id="g2"
           transform="matrix(1.5837738,0,0,1.5837738,-1211.5103,1387.1941)"
           style="fill:#e1e5e8;fill-opacity:1;stroke:#e1e5e8;stroke-width:4.00001;stroke-linecap:butt;stroke-linejoin:miter;stroke-dasharray:none;stroke-opacity:1;paint-order:markers stroke fill"><path
             style="font-size:192.596px;font-family:Designer;-inkscape-font-specification:'Designer, Normal';letter-spacing:20px;fill:#e1e5e8;fill-opacity:1;stroke:#e1e5e8;stroke-width:4.00001;stroke-linecap:butt;stroke-linejoin:miter;stroke-dasharray:none;stroke-opacity:1;paint-order:markers stroke fill"
             d="m 1188.6225,453.88522 -23.6893,54.50467 6.9334,15.79287 31.008,-70.29754 z"
             id="path1" /><path
             style="font-size:192.596px;font-family:Designer;-inkscape-font-specification:'Designer, Normal';letter-spacing:20px;fill:#e1e5e8;fill-opacity:1;stroke:#e1e5e8;stroke-width:4.00001;stroke-linecap:butt;stroke-linejoin:miter;stroke-dasharray:none;stroke-opacity:1;paint-order:markers stroke fill"
             d="M 1161.0813,517.4419 1133.54,453.88522 h -14.2521 l 41.7934,94.75723 6.7408,-15.40768 z"
             id="path2" /></g><g
           id="g4"
           transform="matrix(1.5837738,0,0,1.5837738,-1167.8665,1387.1941)"
           style="fill:#e1e5e8;fill-opacity:1;stroke:#e1e5e8;stroke-width:4.00001;stroke-linecap:butt;stroke-linejoin:miter;stroke-dasharray:none;stroke-opacity:1;paint-order:markers stroke fill"><path
             style="font-size:192.596px;font-family:Designer;-inkscape-font-specification:'Designer, Normal';letter-spacing:20px;fill:#e1e5e8;fill-opacity:1;stroke:#e1e5e8;stroke-width:4.00001;stroke-linecap:butt;stroke-linejoin:miter;stroke-dasharray:none;stroke-opacity:1;paint-order:markers stroke fill"
             d="m 1046.5163,453.11484 v 13.09653 c 17.1411,1.92596 30.2376,16.37066 30.2376,33.89689 0,17.71883 -13.0965,32.16353 -30.2376,34.08949 v 13.09653 c 24.2671,-1.92596 43.5267,-22.14854 43.5267,-47.18602 0,-24.84488 -19.2596,-45.06746 -43.5267,-46.99342 z"
             id="path3" /><path
             style="font-size:192.596px;font-family:Designer;-inkscape-font-specification:'Designer, Normal';letter-spacing:20px;fill:#e1e5e8;fill-opacity:1;stroke:#e1e5e8;stroke-width:4.00001;stroke-linecap:butt;stroke-linejoin:miter;stroke-dasharray:none;stroke-opacity:1;paint-order:markers stroke fill"
             d="m 995.47837,500.10826 c 0,25.03748 19.06703,45.26006 43.52673,47.18602 v -13.09653 c -17.3337,-1.92596 -30.4302,-16.37066 -30.4302,-34.08949 0,-17.52623 13.0965,-31.97093 30.4302,-33.89689 v -13.09653 c -24.4597,1.92596 -43.71932,22.14854 -43.52673,46.99342 z"
             id="path4" /></g><g
           id="g6"
           transform="matrix(1.5837738,0,0,1.5837738,-1126.621,1387.1941)"
           style="fill:#e1e5e8;fill-opacity:1;stroke:#e1e5e8;stroke-width:4.00001;stroke-linecap:butt;stroke-linejoin:miter;stroke-dasharray:none;stroke-opacity:1;paint-order:markers stroke fill"><path
             style="font-size:192.596px;font-family:Designer;-inkscape-font-specification:'Designer, Normal';letter-spacing:20px;fill:#e1e5e8;fill-opacity:1;stroke:#e1e5e8;stroke-width:4.00001;stroke-linecap:butt;stroke-linejoin:miter;stroke-dasharray:none;stroke-opacity:1;paint-order:markers stroke fill"
             d="m 876.29152,546.3313 h 13.09653 v -52.00092 l -13.09653,-13.09653 z"
             id="path5" /><path
             style="font-size:192.596px;font-family:Designer;-inkscape-font-specification:'Designer, Normal';letter-spacing:20px;fill:#e1e5e8;fill-opacity:1;stroke:#e1e5e8;stroke-width:4.00001;stroke-linecap:butt;stroke-linejoin:miter;stroke-dasharray:none;stroke-opacity:1;paint-order:markers stroke fill"
             d="m 940.0408,453.88522 v 63.36408 l -63.74928,-65.48263 v 18.29662 l 76.8458,78.57916 v -94.75723 z"
             id="path6" /></g><path
           style="font-size:192.596px;font-family:Designer;-inkscape-font-specification:'Designer, Normal';letter-spacing:20px;fill:#e1e5e8;fill-opacity:1;stroke:#e1e5e8;stroke-width:6.33511;stroke-linecap:butt;stroke-linejoin:miter;stroke-dasharray:none;stroke-opacity:1;paint-order:markers stroke fill"
           d="m 214.67379,2252.4593 h 20.74194 v -146.4137 h -20.74194 z"
           id="path14" /><path
           style="font-size:192.596px;font-family:Designer;-inkscape-font-specification:'Designer, Normal';letter-spacing:45px;display:inline;fill:#e1e5e8;fill-opacity:1;stroke:#e1e5e8;stroke-width:6.33511;stroke-linecap:butt;stroke-linejoin:miter;stroke-dasharray:none;stroke-opacity:1;paint-order:markers stroke fill"
           d="m 740.08403,2102.6914 -69.54683,149.7687 h 22.57194 l 14.03113,-31.1125 3.02216,-6.6351 44.17874,0.3217 -9.35425,-20.1839 -25.68675,-0.1856 20.78386,-45.6108 20.92324,45.914 h -0.0158 l 12.03304,26.3797 14.03129,31.4156 h 22.87492 z"
           id="path21" /></g></g></g></svg>
